<svg width="36" height="35" viewBox="0 0 36 35" fill="none" xmlns="http://www.w3.org/2000/svg">
<path d="M1.62724 35H1.62363C1.31613 35 1.01907 34.8898 0.787148 34.6902C0.577025 34.4671 0.46133 34.1643 0.469355 33.8583L0.610195 26.2361C0.730036 21.3654 4.63878 17.4417 9.50906 17.3031H10.49L26.2479 1.5467C27.2917 0.54945 28.6618 0 30.1061 0C31.5514 0 32.9223 0.54945 33.9668 1.54777C34.9793 2.55197 35.5492 3.94566 35.5306 5.37091L35.5294 5.38375L35.5306 5.39659C35.5434 6.81061 34.9722 8.19038 33.9633 9.18175L18.1658 24.9548V25.96C18.0262 30.8302 14.1025 34.7389 9.23326 34.8588L1.62724 35ZM9.58583 19.5978C5.91155 19.5978 2.87219 22.5863 2.81053 26.2602V32.6898L9.2671 32.5176L9.28449 32.5165C12.8391 32.3699 15.691 29.4686 15.777 25.9113V25.9044C15.8085 24.2539 15.1631 22.6318 14.0062 21.4526C12.8498 20.274 11.2385 19.5978 9.58583 19.5978ZM30.1295 2.29838C29.3196 2.29838 28.5523 2.60547 27.9689 3.16348L13.2126 17.8943L14.418 18.6808C14.8864 18.9857 15.3244 19.3404 15.7201 19.7374C16.1174 20.1451 16.4798 20.5913 16.7976 21.0637L17.5887 22.2412L32.31 7.52002C32.8747 6.95185 33.1872 6.1991 33.1897 5.40141C33.2082 4.58285 32.8913 3.77767 32.3203 3.19291L32.2902 3.16348C31.7065 2.60547 30.9392 2.29838 30.1295 2.29838Z" fill="url(#paint0_linear_3_2102)"/>
<defs>
<linearGradient id="paint0_linear_3_2102" x1="9.23448" y1="8.75" x2="9.23448" y2="8.75" gradientUnits="userSpaceOnUse">
<stop stop-color="#E95841"/>
<stop offset="1" stop-color="#E94B63"/>
</linearGradient>
</defs>
</svg>
