<svg width="16" height="16" viewBox="0 0 16 16" fill="none" xmlns="http://www.w3.org/2000/svg">
<path d="M15.5 15.5H12.1667V9.875C12.1667 8.99167 11.175 8.25833 10.2917 8.25833C9.40833 8.25833 8.83333 8.99167 8.83333 9.875V15.5H5.5V5.5H8.83333V7.16667C9.38333 6.275 10.8 5.7 11.75 5.7C13.8333 5.7 15.5 7.4 15.5 9.45833V15.5ZM3.83333 15.5H0.5V5.5H3.83333V15.5ZM2.16667 0.5C3.08333 0.5 3.83333 1.25 3.83333 2.16667C3.83333 3.08333 3.08333 3.83333 2.16667 3.83333C1.25 3.83333 0.5 3.08333 0.5 2.16667C0.5 1.25 1.25 0.5 2.16667 0.5Z" fill="white"/>
</svg>
